<?xml version="1.0"?>
<svg width="40" height="41" xmlns="http://www.w3.org/2000/svg" xmlns:svg="http://www.w3.org/2000/svg" version="1.1">
 <g class="layer">
  <title>Layer 1</title>
  <g id="surface1">
   <path d="m6.27,6.3c-0.32,0 -0.58,-0.22 -0.58,-0.49c0,-0.27 0.26,-0.49 0.58,-0.49c0.33,0 0.59,0.22 0.59,0.49c0,0.27 -0.26,0.49 -0.59,0.49zm2.49,0c-0.33,0 -0.59,-0.22 -0.59,-0.49c0,-0.27 0.26,-0.49 0.59,-0.49c0.32,0 0.58,0.22 0.58,0.49c0,0.27 -0.26,0.49 -0.58,0.49zm2.48,0c-0.32,0 -0.58,-0.22 -0.58,-0.49c0,-0.27 0.26,-0.49 0.58,-0.49c0.33,0 0.59,0.22 0.59,0.49c0,0.27 -0.26,0.49 -0.59,0.49zm2.49,0c-0.32,0 -0.58,-0.22 -0.58,-0.49c0,-0.27 0.26,-0.49 0.58,-0.49c0.32,0 0.59,0.22 0.59,0.49c0,0.27 -0.27,0.49 -0.59,0.49zm2.49,0c-0.33,0 -0.58,-0.22 -0.58,-0.49c0,-0.27 0.25,-0.49 0.58,-0.49c0.32,0 0.59,0.22 0.59,0.49c0,0.27 -0.27,0.49 -0.59,0.49zm2.49,0c-0.32,0 -0.58,-0.22 -0.58,-0.49c0,-0.27 0.26,-0.49 0.58,-0.49c0.32,0 0.58,0.22 0.58,0.49c0,0.27 -0.26,0.49 -0.58,0.49zm2.48,0c-0.32,0 -0.58,-0.22 -0.58,-0.49c0,-0.27 0.26,-0.49 0.58,-0.49c0.33,0 0.59,0.22 0.59,0.49c0,0.27 -0.26,0.49 -0.59,0.49zm2.49,0c-0.32,0 -0.59,-0.22 -0.59,-0.49c0,-0.27 0.27,-0.49 0.59,-0.49c0.33,0 0.59,0.22 0.59,0.49c0,0.27 -0.26,0.49 -0.59,0.49zm2.49,0c-0.33,0 -0.59,-0.22 -0.59,-0.49c0,-0.27 0.26,-0.49 0.59,-0.49c0.32,0 0.58,0.22 0.58,0.49c0.01,0.27 -0.26,0.49 -0.58,0.49zm2.49,0c-0.32,0 -0.59,-0.22 -0.59,-0.49c0,-0.27 0.26,-0.49 0.58,-0.49c0.33,0 0.58,0.22 0.58,0.49c0.01,0.27 -0.25,0.49 -0.57,0.49zm2.48,0c-0.32,0 -0.58,-0.22 -0.58,-0.49c0,-0.27 0.26,-0.49 0.58,-0.49c0.32,0 0.59,0.22 0.59,0.49c0,0.27 -0.27,0.49 -0.59,0.49zm2.5,0c-0.33,0 -0.59,-0.22 -0.59,-0.49c0,-0.27 0.26,-0.49 0.59,-0.49c0.32,0 0.58,0.22 0.58,0.49c0,0.27 -0.26,0.49 -0.58,0.49zm-27.37,2.1c-0.32,0 -0.58,-0.22 -0.58,-0.49c0,-0.27 0.26,-0.49 0.58,-0.49c0.33,0 0.59,0.22 0.59,0.49c0,0.27 -0.26,0.49 -0.59,0.49zm2.49,0c-0.33,0 -0.59,-0.22 -0.59,-0.49c0,-0.27 0.26,-0.49 0.59,-0.49c0.32,0 0.58,0.22 0.58,0.49c0,0.27 -0.26,0.49 -0.58,0.49zm2.48,0c-0.32,0 -0.58,-0.22 -0.58,-0.49c0,-0.27 0.26,-0.49 0.58,-0.49c0.33,0 0.59,0.22 0.59,0.49c0,0.27 -0.26,0.49 -0.59,0.49zm2.49,0c-0.32,0 -0.58,-0.22 -0.58,-0.49c0,-0.27 0.26,-0.49 0.58,-0.49c0.32,0 0.59,0.22 0.59,0.49c0,0.27 -0.27,0.49 -0.59,0.49zm2.49,0c-0.33,0 -0.58,-0.22 -0.58,-0.49c0,-0.27 0.25,-0.49 0.58,-0.49c0.32,0 0.59,0.22 0.59,0.49c0,0.27 -0.27,0.49 -0.59,0.49zm2.49,0c-0.32,0 -0.58,-0.22 -0.58,-0.49c0,-0.27 0.26,-0.49 0.58,-0.49c0.32,0 0.58,0.22 0.58,0.49c0,0.27 -0.26,0.49 -0.58,0.49zm2.48,0c-0.32,0 -0.58,-0.22 -0.58,-0.49c0,-0.27 0.26,-0.49 0.58,-0.49c0.33,0 0.59,0.22 0.59,0.49c0,0.27 -0.26,0.49 -0.59,0.49zm2.49,0c-0.32,0 -0.59,-0.22 -0.59,-0.49c0,-0.27 0.27,-0.49 0.59,-0.49c0.33,0 0.59,0.22 0.59,0.49c0,0.27 -0.26,0.49 -0.59,0.49zm2.49,0c-0.33,0 -0.59,-0.22 -0.59,-0.49c0,-0.27 0.26,-0.49 0.59,-0.49c0.32,0 0.58,0.22 0.58,0.49c0.01,0.27 -0.26,0.49 -0.58,0.49zm2.49,0c-0.32,0 -0.58,-0.22 -0.58,-0.49c0,-0.27 0.26,-0.49 0.58,-0.49c0.32,0 0.58,0.22 0.58,0.49c0,0.27 -0.26,0.49 -0.58,0.49zm2.48,0c-0.32,0 -0.58,-0.22 -0.58,-0.49c0,-0.27 0.26,-0.49 0.58,-0.49c0.32,0 0.59,0.22 0.59,0.49c0,0.27 -0.27,0.49 -0.59,0.49zm2.5,0c-0.33,0 -0.59,-0.22 -0.59,-0.49c0,-0.27 0.26,-0.49 0.59,-0.49c0.32,0 0.58,0.22 0.58,0.49c0,0.27 -0.26,0.49 -0.58,0.49zm-27.37,2.12c-0.32,0 -0.58,-0.22 -0.58,-0.49c0,-0.27 0.26,-0.49 0.58,-0.49c0.33,0 0.59,0.22 0.59,0.49c0,0.27 -0.26,0.49 -0.59,0.49zm2.49,0c-0.33,0 -0.59,-0.22 -0.59,-0.49c0,-0.27 0.26,-0.49 0.59,-0.49c0.32,0 0.58,0.22 0.58,0.49c0,0.27 -0.26,0.49 -0.58,0.49zm22.38,0c-0.32,0 -0.58,-0.22 -0.58,-0.49c0,-0.27 0.26,-0.49 0.58,-0.49c0.32,0 0.59,0.22 0.59,0.49c0,0.27 -0.27,0.49 -0.59,0.49zm2.5,0c-0.33,0 -0.59,-0.22 -0.59,-0.49c0,-0.27 0.26,-0.49 0.59,-0.49c0.32,0 0.58,0.22 0.58,0.49c0,0.27 -0.26,0.49 -0.58,0.49zm-27.37,2.11c-0.32,0 -0.58,-0.22 -0.58,-0.49c0,-0.28 0.26,-0.49 0.58,-0.49c0.33,0 0.59,0.21 0.59,0.49c0,0.26 -0.26,0.49 -0.59,0.49zm2.49,0c-0.33,0 -0.59,-0.22 -0.59,-0.49c0,-0.28 0.26,-0.49 0.59,-0.49c0.32,0 0.58,0.21 0.58,0.49c0,0.26 -0.26,0.49 -0.58,0.49zm22.38,0c-0.32,0 -0.58,-0.22 -0.58,-0.49c0,-0.28 0.26,-0.49 0.58,-0.49c0.32,0 0.59,0.21 0.59,0.49c0,0.26 -0.27,0.49 -0.59,0.49zm2.5,0c-0.33,0 -0.59,-0.22 -0.59,-0.49c0,-0.28 0.26,-0.49 0.59,-0.49c0.32,0 0.58,0.21 0.58,0.49c0,0.26 -0.26,0.49 -0.58,0.49zm-27.37,2.11c-0.32,0 -0.58,-0.21 -0.58,-0.49c0,-0.26 0.26,-0.48 0.58,-0.48c0.33,0 0.59,0.22 0.59,0.48c0,0.28 -0.26,0.49 -0.59,0.49zm2.49,0c-0.33,0 -0.59,-0.21 -0.59,-0.49c0,-0.26 0.26,-0.48 0.59,-0.48c0.32,0 0.58,0.22 0.58,0.48c0,0.28 -0.26,0.49 -0.58,0.49zm22.38,0c-0.32,0 -0.58,-0.21 -0.58,-0.49c0,-0.26 0.26,-0.48 0.58,-0.48c0.32,0 0.59,0.22 0.59,0.48c0,0.28 -0.27,0.49 -0.59,0.49zm2.5,0c-0.33,0 -0.59,-0.21 -0.59,-0.49c0,-0.26 0.26,-0.48 0.59,-0.48c0.32,0 0.58,0.22 0.58,0.48c0,0.28 -0.26,0.49 -0.58,0.49zm-27.37,2.11c-0.32,0 -0.58,-0.22 -0.58,-0.5c0,-0.27 0.26,-0.48 0.58,-0.48c0.33,0 0.59,0.21 0.59,0.48c0,0.27 -0.26,0.5 -0.59,0.5zm2.49,0c-0.33,0 -0.59,-0.22 -0.59,-0.5c0,-0.27 0.26,-0.48 0.59,-0.48c0.32,0 0.58,0.21 0.58,0.48c0,0.27 -0.26,0.5 -0.58,0.5zm22.38,0c-0.32,0 -0.58,-0.22 -0.58,-0.5c0,-0.27 0.26,-0.48 0.58,-0.48c0.32,0 0.59,0.21 0.59,0.48c0,0.27 -0.27,0.5 -0.59,0.5zm2.5,0c-0.33,0 -0.59,-0.22 -0.59,-0.5c0,-0.27 0.26,-0.48 0.59,-0.48c0.32,0 0.58,0.21 0.58,0.48c0,0.27 -0.26,0.5 -0.58,0.5zm-27.37,2.11c-0.32,0 -0.58,-0.21 -0.58,-0.48c0,-0.27 0.26,-0.5 0.58,-0.5c0.33,0 0.59,0.22 0.59,0.49c0,0.27 -0.26,0.49 -0.59,0.49zm2.49,0c-0.33,0 -0.59,-0.21 -0.59,-0.48c0,-0.27 0.26,-0.5 0.59,-0.5c0.32,0 0.58,0.22 0.58,0.49c0,0.27 -0.26,0.49 -0.58,0.49zm22.38,0c-0.32,0 -0.58,-0.21 -0.58,-0.48c0,-0.27 0.26,-0.5 0.58,-0.5c0.32,0 0.59,0.22 0.59,0.49c0,0.27 -0.27,0.49 -0.59,0.49zm2.5,0c-0.33,0 -0.59,-0.21 -0.59,-0.48c0,-0.27 0.25,-0.5 0.59,-0.5c0.32,0 0.58,0.22 0.58,0.49c0,0.27 -0.26,0.49 -0.58,0.49zm-27.37,2.11c-0.32,0 -0.58,-0.22 -0.58,-0.5c0,-0.27 0.26,-0.48 0.58,-0.48c0.33,0 0.59,0.21 0.59,0.48c0,0.28 -0.26,0.5 -0.59,0.5zm2.49,0c-0.33,0 -0.59,-0.22 -0.59,-0.5c0,-0.27 0.26,-0.48 0.59,-0.48c0.32,0 0.58,0.21 0.58,0.48c0,0.28 -0.26,0.5 -0.58,0.5zm22.38,0c-0.32,0 -0.58,-0.22 -0.58,-0.5c0,-0.27 0.26,-0.48 0.58,-0.48c0.32,0 0.59,0.21 0.59,0.48c0,0.28 -0.27,0.5 -0.59,0.5zm2.5,0c-0.33,0 -0.59,-0.22 -0.59,-0.5c0,-0.27 0.26,-0.48 0.59,-0.48c0.32,0 0.58,0.21 0.58,0.48c0,0.28 -0.26,0.5 -0.58,0.5zm-27.37,2.11c-0.32,0 -0.58,-0.21 -0.58,-0.48c0,-0.27 0.26,-0.49 0.58,-0.49c0.33,0 0.59,0.22 0.59,0.49c0,0.27 -0.26,0.48 -0.59,0.48zm2.49,0c-0.33,0 -0.59,-0.21 -0.59,-0.48c0,-0.27 0.26,-0.49 0.59,-0.49c0.32,0 0.58,0.22 0.58,0.49c0,0.27 -0.26,0.48 -0.58,0.48zm22.38,0c-0.32,0 -0.58,-0.21 -0.58,-0.48c0,-0.27 0.26,-0.49 0.58,-0.49c0.32,0 0.59,0.22 0.59,0.49c0,0.27 -0.27,0.48 -0.59,0.48zm2.5,0c-0.33,0 -0.59,-0.21 -0.59,-0.48c0,-0.27 0.26,-0.49 0.59,-0.49c0.32,0 0.58,0.22 0.58,0.49c0,0.27 -0.26,0.48 -0.58,0.48zm-27.37,2.11c-0.32,0 -0.58,-0.22 -0.58,-0.49c0,-0.27 0.26,-0.48 0.58,-0.48c0.33,0 0.59,0.21 0.59,0.48c0,0.27 -0.26,0.49 -0.59,0.49zm2.49,0c-0.33,0 -0.59,-0.22 -0.59,-0.49c0,-0.27 0.26,-0.48 0.59,-0.48c0.32,0 0.58,0.21 0.58,0.48c0,0.27 -0.26,0.49 -0.58,0.49zm22.38,0c-0.32,0 -0.58,-0.22 -0.58,-0.49c0,-0.27 0.26,-0.48 0.58,-0.48c0.32,0 0.59,0.21 0.59,0.48c0,0.27 -0.27,0.49 -0.59,0.49zm2.5,0c-0.33,0 -0.59,-0.22 -0.59,-0.49c0,-0.27 0.26,-0.48 0.59,-0.48c0.32,0 0.58,0.21 0.58,0.48c0,0.27 -0.26,0.49 -0.58,0.49zm-27.37,2.11c-0.32,0 -0.58,-0.21 -0.58,-0.48c0,-0.27 0.26,-0.49 0.58,-0.49c0.33,0 0.59,0.22 0.59,0.49c0,0.27 -0.26,0.48 -0.59,0.48zm2.49,0c-0.33,0 -0.59,-0.21 -0.59,-0.48c0,-0.27 0.26,-0.49 0.59,-0.49c0.32,0 0.58,0.22 0.58,0.49c0,0.27 -0.26,0.48 -0.58,0.48zm2.48,0c-0.32,0 -0.58,-0.21 -0.58,-0.48c0,-0.27 0.26,-0.49 0.58,-0.49c0.33,0 0.59,0.22 0.59,0.49c0,0.27 -0.26,0.48 -0.59,0.48zm2.49,0c-0.32,0 -0.58,-0.21 -0.58,-0.48c0,-0.27 0.26,-0.49 0.58,-0.49c0.32,0 0.59,0.22 0.59,0.49c0,0.27 -0.27,0.48 -0.59,0.48zm2.49,0c-0.33,0 -0.58,-0.21 -0.58,-0.48c0,-0.27 0.25,-0.49 0.58,-0.49c0.32,0 0.59,0.22 0.59,0.49c0,0.27 -0.27,0.48 -0.59,0.48zm2.49,0c-0.32,0 -0.58,-0.21 -0.58,-0.48c0,-0.27 0.26,-0.49 0.58,-0.49c0.32,0 0.58,0.22 0.58,0.49c0,0.27 -0.26,0.48 -0.58,0.48zm2.48,0c-0.32,0 -0.58,-0.21 -0.58,-0.48c0,-0.27 0.26,-0.49 0.58,-0.49c0.33,0 0.59,0.22 0.59,0.49c0,0.27 -0.26,0.48 -0.59,0.48zm2.49,0c-0.32,0 -0.59,-0.21 -0.59,-0.48c0,-0.27 0.27,-0.49 0.59,-0.49c0.33,0 0.59,0.22 0.59,0.49c0,0.27 -0.26,0.48 -0.59,0.48zm2.49,0c-0.33,0 -0.59,-0.21 -0.59,-0.48c0,-0.27 0.26,-0.49 0.59,-0.49c0.32,0 0.58,0.22 0.58,0.49c0.01,0.27 -0.26,0.48 -0.58,0.48zm2.49,0c-0.32,0 -0.58,-0.21 -0.58,-0.48c0,-0.27 0.26,-0.49 0.58,-0.49c0.32,0 0.58,0.22 0.58,0.49c0,0.27 -0.26,0.48 -0.58,0.48zm2.48,0c-0.32,0 -0.58,-0.21 -0.58,-0.48c0,-0.27 0.26,-0.49 0.58,-0.49c0.32,0 0.59,0.22 0.59,0.49c0,0.27 -0.27,0.48 -0.59,0.48zm2.5,0c-0.33,0 -0.59,-0.21 -0.59,-0.48c0,-0.27 0.26,-0.49 0.59,-0.49c0.32,0 0.58,0.22 0.58,0.49c0,0.27 -0.26,0.48 -0.58,0.48zm-27.37,2.11c-0.32,0 -0.58,-0.22 -0.58,-0.49c0,-0.27 0.26,-0.49 0.58,-0.49c0.33,0 0.59,0.22 0.59,0.49c0,0.27 -0.26,0.49 -0.59,0.49zm2.49,0c-0.33,0 -0.59,-0.22 -0.59,-0.49c0,-0.27 0.26,-0.49 0.59,-0.49c0.32,0 0.58,0.22 0.58,0.49c0,0.27 -0.26,0.49 -0.58,0.49zm2.48,0c-0.32,0 -0.58,-0.22 -0.58,-0.49c0,-0.27 0.26,-0.49 0.58,-0.49c0.33,0 0.59,0.22 0.59,0.49c0,0.27 -0.26,0.49 -0.59,0.49zm2.49,0c-0.32,0 -0.58,-0.22 -0.58,-0.49c0,-0.27 0.26,-0.49 0.58,-0.49c0.32,0 0.59,0.22 0.59,0.49c0,0.27 -0.27,0.49 -0.59,0.49zm2.49,0c-0.33,0 -0.58,-0.22 -0.58,-0.49c0,-0.27 0.25,-0.49 0.58,-0.49c0.32,0 0.59,0.22 0.59,0.49c0,0.27 -0.27,0.49 -0.59,0.49zm2.49,0c-0.32,0 -0.58,-0.22 -0.58,-0.49c0,-0.27 0.26,-0.49 0.58,-0.49c0.32,0 0.58,0.22 0.58,0.49c0,0.27 -0.26,0.49 -0.58,0.49zm2.48,0c-0.32,0 -0.58,-0.22 -0.58,-0.49c0,-0.27 0.26,-0.49 0.58,-0.49c0.33,0 0.59,0.22 0.59,0.49c0,0.27 -0.26,0.49 -0.59,0.49zm2.49,0c-0.32,0 -0.59,-0.22 -0.59,-0.49c0,-0.27 0.27,-0.49 0.59,-0.49c0.33,0 0.59,0.22 0.59,0.49c0,0.27 -0.26,0.49 -0.59,0.49zm2.49,0c-0.33,0 -0.59,-0.22 -0.59,-0.49c0,-0.27 0.26,-0.49 0.59,-0.49c0.32,0 0.58,0.22 0.58,0.49c0.01,0.27 -0.26,0.49 -0.58,0.49zm2.49,0c-0.32,0 -0.58,-0.22 -0.58,-0.49c0,-0.27 0.26,-0.49 0.58,-0.49c0.32,0 0.58,0.22 0.58,0.49c0,0.27 -0.26,0.49 -0.58,0.49zm2.48,0c-0.32,0 -0.58,-0.22 -0.58,-0.49c0,-0.27 0.26,-0.49 0.58,-0.49c0.32,0 0.59,0.22 0.59,0.49c0,0.27 -0.27,0.49 -0.59,0.49zm2.5,0c-0.33,0 -0.59,-0.22 -0.59,-0.49c0,-0.27 0.26,-0.49 0.59,-0.49c0.32,0 0.58,0.22 0.58,0.49c0,0.27 -0.26,0.49 -0.58,0.49zm-4.47,-12.8c-0.3,0 -0.54,-0.2 -0.54,-0.45l0,-5.84c0,-0.08 -0.08,-0.15 -0.18,-0.15l-16.91,0c-0.1,0 -0.18,0.07 -0.18,0.15l0,5.84c0,0.25 -0.24,0.45 -0.55,0.45c-0.3,0 -0.54,-0.2 -0.54,-0.45l0,-5.84c0,-0.58 0.57,-1.05 1.27,-1.05l16.91,0c0.69,0 1.26,0.47 1.26,1.05l0,5.84c0.01,0.25 -0.24,0.45 -0.54,0.45zm0.08,5.68l-3.38,2.81c-0.3,0.24 -0.7,0.38 -1.12,0.38l-13.21,0c-0.69,0 -1.26,-0.47 -1.26,-1.05l0,-5.85c0,-0.25 0.25,-0.45 0.54,-0.45c0.3,0 0.55,0.2 0.55,0.45l0,5.85c0,0.08 0.08,0.14 0.17,0.14l13.21,0c0.13,0 0.25,-0.04 0.35,-0.12l3.38,-2.8c0.09,-0.08 0.15,-0.19 0.15,-0.29l0,-2.78c0,-0.25 0.25,-0.45 0.55,-0.45c0.3,0 0.55,0.2 0.55,0.45l0,2.78c-0.01,0.35 -0.18,0.69 -0.48,0.94zm8.8,1.69c0.3,0 0.55,0.21 0.55,0.46c0,0.25 -0.25,0.45 -0.55,0.45l-1.57,0l0,2.63l1.57,0c0.3,0 0.55,0.2 0.55,0.45c0,0.25 -0.25,0.45 -0.55,0.45l-1.57,0l0,0.89c0,0.99 -0.96,1.8 -2.15,1.8l-1.07,0l0,1.31c0,0.25 -0.25,0.45 -0.55,0.45c-0.3,0 -0.55,-0.21 -0.55,-0.45l0,-1.31l-3.14,0l0,1.31c0,0.24 -0.25,0.45 -0.55,0.45c-0.3,0 -0.55,-0.2 -0.55,-0.45l0,-1.31l-3.14,0l0,1.31c0,0.24 -0.24,0.45 -0.55,0.45c-0.3,0 -0.55,-0.2 -0.55,-0.45l0,-1.31l-3.14,0l0,1.31c0,0.24 -0.25,0.45 -0.55,0.45c-0.3,0 -0.54,-0.2 -0.54,-0.45l0,-1.31l-3.16,0l0,1.31c0,0.24 -0.24,0.45 -0.54,0.45c-0.3,0 -0.54,-0.2 -0.54,-0.45l0,-1.31l-3.14,0l0,1.31c0,0.24 -0.25,0.45 -0.55,0.45c-0.3,0 -0.54,-0.2 -0.54,-0.45l0,-1.31l-3.15,0l0,1.31c0,0.24 -0.24,0.45 -0.54,0.45c-0.31,0 -0.55,-0.2 -0.55,-0.45l0,-1.31l-1.07,0c-1.19,0 -2.15,-0.81 -2.15,-1.8l0,-0.89l-1.57,0c-0.3,0.01 -0.55,-0.2 -0.55,-0.45c0,-0.25 0.25,-0.46 0.55,-0.46l1.57,0l0,-2.63l-1.57,0c-0.3,0.01 -0.55,-0.19 -0.55,-0.45c0,-0.25 0.25,-0.45 0.55,-0.45l1.57,0l0,-2.63l-1.57,0c-0.3,0.01 -0.55,-0.2 -0.55,-0.45c0,-0.25 0.25,-0.45 0.55,-0.45l1.57,0l0,-2.63l-1.57,0c-0.3,0 -0.55,-0.21 -0.55,-0.46c0,-0.24 0.25,-0.45 0.55,-0.45l1.57,0l0,-2.63l-1.57,0c-0.3,0 -0.55,-0.21 -0.55,-0.45c0,-0.25 0.25,-0.45 0.55,-0.45l1.57,0l0,-2.63l-1.57,0c-0.3,0 -0.55,-0.2 -0.55,-0.45c0,-0.25 0.25,-0.45 0.55,-0.45l1.57,0l0,-2.62l-1.57,0c-0.3,0 -0.55,-0.2 -0.55,-0.45c0,-0.25 0.25,-0.45 0.55,-0.45l1.57,0l0,-0.89c0,-0.99 0.96,-1.8 2.15,-1.8l1.07,0l0,-1.31c0,-0.25 0.25,-0.45 0.55,-0.45c0.3,0 0.54,0.2 0.54,0.45l0,1.31l3.15,0l0,-1.31c0,-0.25 0.25,-0.45 0.54,-0.45c0.3,0 0.55,0.2 0.55,0.45l0,1.31l3.15,0l0,-1.31c0,-0.25 0.24,-0.45 0.55,-0.45c0.3,0 0.54,0.2 0.54,0.45l0,1.31l3.15,0l0,-1.31c0,-0.25 0.25,-0.45 0.55,-0.45c0.3,0 0.54,0.2 0.54,0.45l0,1.31l3.15,0l0,-1.31c0,-0.25 0.25,-0.45 0.55,-0.45c0.3,0 0.54,0.2 0.54,0.45l0,1.31l3.15,0l0,-1.31c0,-0.25 0.24,-0.45 0.54,-0.45c0.31,0 0.55,0.2 0.55,0.45l0,1.31l3.15,0l0,-1.31c0,-0.25 0.24,-0.45 0.54,-0.45c0.3,0 0.55,0.2 0.55,0.45l0,1.31l1.07,0c1.19,0 2.16,0.81 2.16,1.8l0,0.89l1.56,0c0.3,0 0.55,0.2 0.55,0.45c0,0.25 -0.25,0.45 -0.55,0.45l-1.56,0l0,2.62l1.56,0c0.3,0 0.55,0.21 0.55,0.46c0,0.25 -0.25,0.45 -0.55,0.45l-1.56,0l0,2.63l1.56,0c0.3,0 0.55,0.2 0.55,0.45c0,0.24 -0.25,0.45 -0.55,0.45l-1.56,0l0,2.64l1.56,0c0.3,0 0.55,0.2 0.55,0.45c0,0.25 -0.25,0.45 -0.55,0.45l-1.56,0l0,2.64l1.56,0c0.3,0 0.55,0.2 0.55,0.45c0,0.25 -0.25,0.45 -0.55,0.45l-1.56,0l0,2.63l1.55,0l0,-0.01zm-2.65,3.99l0,-22.56c0,-0.49 -0.48,-0.88 -1.06,-0.88l-28.67,0c-0.59,0 -1.07,0.4 -1.07,0.88l0,23.91c0,0.49 0.48,0.89 1.07,0.89l28.66,0c0.59,0 1.06,-0.4 1.06,-0.89l0,-1.35l0.01,0zm0,0" fill="#dc3545" fill-rule="nonzero" id="svg_1"/>
  </g>
 </g>
</svg>