<?xml version="1.0"?>
<svg width="39" height="27" xmlns="http://www.w3.org/2000/svg" xmlns:svg="http://www.w3.org/2000/svg" version="1.1">
 <g class="layer">
  <title>Layer 1</title>
  <g id="surface1">
   <path d="m5.52,2.38l-3.68,0c-0.34,0 -0.61,-0.28 -0.61,-0.62c0,-0.33 0.27,-0.61 0.61,-0.61l3.68,0c0.33,0 0.61,0.28 0.61,0.61c0,0.34 -0.28,0.62 -0.61,0.62zm0,24.62c-0.34,0 -0.62,-0.28 -0.62,-0.61l0,-24.63c0,-0.33 0.28,-0.61 0.62,-0.61c0.33,0 0.61,0.28 0.61,0.61l0,24.63c0,0.33 -0.28,0.61 -0.61,0.61zm0,-12.93l-2.45,0c-0.34,0 -0.61,-0.27 -0.61,-0.61l0,-4.92c0,-0.34 0.27,-0.62 0.61,-0.62l2.45,0c0.33,0 0.61,0.28 0.61,0.62l0,4.92c0,0.34 -0.28,0.61 -0.61,0.61zm-0.62,-4.92l-1.22,0l0,3.69l1.22,0l0,-3.69zm0.62,14.77l-2.45,0c-0.34,0 -0.61,-0.28 -0.61,-0.62l0,-4.92c0,-0.34 0.27,-0.61 0.61,-0.61l2.45,0c0.33,0 0.61,0.27 0.61,0.61l0,4.92c0,0.34 -0.28,0.62 -0.61,0.62zm-0.62,-4.92l-1.22,0l0,3.69l1.22,0l0,-3.69zm18.37,8l-13.47,0c-0.34,0 -0.61,-0.28 -0.61,-0.61l0,-4.31c0,-0.34 0.28,-0.62 0.61,-0.62l13.47,0c0.34,0 0.61,0.28 0.61,0.62l0,4.31c0,0.33 -0.27,0.61 -0.61,0.61zm-0.61,-4.31l-12.25,0l0,3.08l12.25,0l0,-3.08zm-9.8,4.31c-0.34,0 -0.61,-0.28 -0.61,-0.61l0,-1.85c0,-0.34 0.28,-0.61 0.61,-0.61c0.34,0 0.61,0.27 0.61,0.61l0,1.85c0.01,0.33 -0.27,0.61 -0.61,0.61zm7.35,0c-0.34,0 -0.61,-0.28 -0.61,-0.61l0,-1.85c0,-0.34 0.28,-0.61 0.61,-0.61c0.34,0 0.61,0.27 0.61,0.61l0,1.85c0,0.33 -0.27,0.61 -0.61,0.61zm9.18,0c-0.34,0 -0.6,-0.28 -0.6,-0.61l0,-1.85c0,-0.34 0.27,-0.61 0.6,-0.61c0.34,0 0.61,0.27 0.61,0.61l0,1.85c0.01,0.33 -0.27,0.61 -0.61,0.61zm-11.63,0c-0.34,0 -0.61,-0.28 -0.61,-0.61l0,-1.85c0,-0.34 0.28,-0.61 0.61,-0.61c0.34,0 0.61,0.27 0.61,0.61l0,1.85c0,0.33 -0.27,0.61 -0.61,0.61zm-2.44,0c-0.34,0 -0.62,-0.28 -0.62,-0.61l0,-1.85c0,-0.34 0.28,-0.61 0.62,-0.61c0.33,0 0.61,0.27 0.61,0.61l0,1.85c0,0.33 -0.28,0.61 -0.61,0.61zm16.53,0l-4.9,0c-0.34,0 -0.61,-0.28 -0.61,-0.61l0,-4.31c0,-0.34 0.27,-0.62 0.61,-0.62l4.9,0c0.34,0 0.61,0.28 0.61,0.62l0,4.31c0,0.33 -0.28,0.61 -0.61,0.61zm-0.62,-4.31l-3.67,0l0,3.08l3.67,0l0,-3.08zm-25.71,-16l-2.45,0c-0.34,0 -0.61,-0.28 -0.61,-0.62c0,-0.34 0.27,-0.61 0.61,-0.61l2.45,0c0.33,0 0.61,0.27 0.61,0.61c0,0.34 -0.28,0.62 -0.61,0.62zm0,9.85l-2.45,0c-0.34,0 -0.61,-0.28 -0.61,-0.61c0,-0.34 0.27,-0.62 0.61,-0.62l2.45,0c0.33,0 0.61,0.28 0.61,0.62c0,0.33 -0.28,0.61 -0.61,0.61zm8.57,3.69c-3.71,0 -6.74,-3.04 -6.74,-6.78c0,-3.73 3.03,-6.77 6.74,-6.77c3.71,0 6.73,3.04 6.73,6.77c0,3.74 -3.02,6.78 -6.73,6.78zm0,-12.31c-3.04,0 -5.51,2.48 -5.51,5.53c0,3.06 2.47,5.54 5.51,5.54c3.04,0 5.51,-2.49 5.51,-5.54c0,-3.05 -2.47,-5.53 -5.51,-5.53zm0,8c-1.35,0 -2.45,-1.1 -2.45,-2.47c0,-1.35 1.1,-2.46 2.45,-2.46c1.35,0 2.45,1.1 2.45,2.46c0,1.37 -1.1,2.47 -2.45,2.47zm0,-3.69c-0.68,0 -1.23,0.55 -1.23,1.22c0,0.68 0.55,1.23 1.23,1.23c0.67,0 1.23,-0.55 1.23,-1.23c0,-0.67 -0.55,-1.22 -1.23,-1.22zm20.2,10.46l-28.77,0c-0.34,0 -0.62,-0.28 -0.62,-0.61l0,-17.24c0,-0.34 0.28,-0.61 0.62,-0.61l28.77,0c2.03,0 3.68,1.65 3.68,3.69l0,11.08c0,2.04 -1.65,3.69 -3.68,3.69zm2.45,-14.77c0,-1.36 -1.1,-2.46 -2.45,-2.46l-28.16,0l0,16l28.16,0c1.35,0 2.45,-1.1 2.45,-2.46l0,-11.08zm-22.65,4.31c-0.34,0 -0.61,-0.28 -0.61,-0.62c0,-1.33 -1.69,-2.46 -3.07,-2.46c-0.34,0 -0.61,-0.27 -0.61,-0.61c0,-0.34 0.28,-0.62 0.61,-0.62c1.99,0 4.29,1.62 4.29,3.7c0,0.33 -0.27,0.61 -0.61,0.61zm3.67,6.77c-1.98,0 -4.28,-1.62 -4.28,-3.7c0,-0.34 0.27,-0.61 0.61,-0.61c0.34,0 0.61,0.27 0.61,0.61c0,1.33 1.68,2.46 3.06,2.46c0.34,0 0.61,0.28 0.61,0.62c0,0.34 -0.27,0.62 -0.61,0.62zm-5.51,-4.93c-1.32,0 -2.45,1.7 -2.45,3.08c0,0.34 -0.27,0.62 -0.61,0.62c-0.33,0 -0.61,-0.28 -0.61,-0.62c0,-1.99 1.61,-4.31 3.68,-4.31c0.34,0 0.61,0.28 0.61,0.62c-0.01,0.34 -0.28,0.61 -0.62,0.61zm3.68,0c-0.34,0 -0.61,-0.27 -0.61,-0.61c0,-0.34 0.27,-0.62 0.61,-0.62c1.31,0 2.44,-1.69 2.44,-3.07c0,-0.34 0.28,-0.62 0.61,-0.62c0.34,0 0.61,0.28 0.61,0.62c0.01,1.99 -1.6,4.3 -3.66,4.3zm-2.71,-1.48c-0.24,0.24 -0.62,0.24 -0.86,0c-0.42,-0.42 -1.1,-0.61 -1.88,-0.52c-0.77,0.1 -1.52,0.45 -2.02,0.95c-0.12,0.12 -0.28,0.18 -0.44,0.18c-0.16,0 -0.31,-0.06 -0.43,-0.18c-0.24,-0.24 -0.24,-0.63 0,-0.87c0.68,-0.69 1.71,-1.17 2.74,-1.3c1.17,-0.14 2.19,0.16 2.89,0.86c0.24,0.25 0.24,0.63 0,0.88zm7.36,2.18c-0.68,0.68 -1.7,1.16 -2.74,1.28c-0.18,0.03 -0.37,0.04 -0.55,0.04c-0.94,0 -1.75,-0.31 -2.34,-0.89c-0.24,-0.25 -0.24,-0.64 0,-0.88c0.24,-0.24 0.63,-0.24 0.87,0c0.41,0.42 1.09,0.61 1.88,0.51c0.77,-0.09 1.52,-0.45 2.02,-0.94c0.23,-0.24 0.62,-0.24 0.86,0c0.24,0.24 0.24,0.63 0,0.88zm-6.93,5.21c-0.11,0.13 -0.27,0.18 -0.43,0.18c-0.15,0 -0.31,-0.05 -0.43,-0.18c-1.4,-1.4 -1.9,-4.18 -0.44,-5.65c0.24,-0.24 0.63,-0.24 0.87,0c0.23,0.24 0.23,0.63 0,0.87c-0.93,0.93 -0.54,2.93 0.43,3.91c0.24,0.25 0.24,0.64 0,0.87zm2.17,-7.39c-0.12,0.12 -0.28,0.18 -0.44,0.18c-0.16,0 -0.31,-0.07 -0.43,-0.19c-0.24,-0.24 -0.24,-0.63 0,-0.87c0.93,-0.93 0.54,-2.93 -0.44,-3.91c-0.24,-0.25 -0.24,-0.64 0,-0.88c0.24,-0.24 0.63,-0.24 0.87,0c1.41,1.42 1.9,4.2 0.44,5.67zm12.97,7.64c-3.72,0 -6.74,-3.04 -6.74,-6.78c0,-3.73 3.02,-6.77 6.74,-6.77c3.71,0 6.73,3.04 6.73,6.77c0,3.74 -3.02,6.78 -6.73,6.78zm0,-12.31c-3.05,0 -5.52,2.48 -5.52,5.53c0,3.06 2.47,5.54 5.52,5.54c3.03,0 5.5,-2.49 5.5,-5.54c0,-3.05 -2.47,-5.53 -5.5,-5.53zm0,8c-1.36,0 -2.45,-1.1 -2.45,-2.47c0,-1.35 1.09,-2.46 2.45,-2.46c1.34,0 2.44,1.1 2.44,2.46c0,1.37 -1.1,2.47 -2.44,2.47zm0,-3.69c-0.68,0 -1.23,0.55 -1.23,1.22c0,0.68 0.55,1.23 1.23,1.23c0.67,0 1.22,-0.55 1.22,-1.23c0,-0.67 -0.55,-1.22 -1.22,-1.22zm0,0c-0.34,0 -0.62,-0.28 -0.62,-0.62c0,-1.33 -1.68,-2.46 -3.06,-2.46c-0.34,0 -0.61,-0.27 -0.61,-0.61c0,-0.34 0.28,-0.62 0.61,-0.62c1.98,0 4.28,1.62 4.28,3.7c0,0.33 -0.27,0.61 -0.6,0.61zm3.67,6.77c-1.99,0 -4.29,-1.62 -4.29,-3.7c0,-0.34 0.28,-0.61 0.62,-0.61c0.33,0 0.6,0.27 0.6,0.61c0,1.33 1.69,2.46 3.07,2.46c0.34,0 0.61,0.28 0.61,0.62c0,0.34 -0.27,0.62 -0.61,0.62zm-5.51,-4.93c-1.32,0 -2.45,1.7 -2.45,3.08c0,0.34 -0.28,0.62 -0.61,0.62c-0.34,0 -0.61,-0.28 -0.61,-0.62c0,-1.99 1.6,-4.31 3.67,-4.31c0.34,0 0.61,0.28 0.61,0.62c0,0.34 -0.27,0.61 -0.61,0.61zm3.67,0c-0.34,0 -0.61,-0.27 -0.61,-0.61c0,-0.34 0.28,-0.62 0.61,-0.62c1.32,0 2.45,-1.69 2.45,-3.07c0,-0.34 0.27,-0.62 0.61,-0.62c0.34,0 0.61,0.28 0.61,0.62c0,1.99 -1.6,4.3 -3.67,4.3zm-2.7,-1.48c-0.24,0.24 -0.63,0.24 -0.87,0c-0.41,-0.42 -1.09,-0.61 -1.87,-0.52c-0.77,0.1 -1.52,0.45 -2.02,0.95c-0.12,0.12 -0.28,0.18 -0.44,0.18c-0.15,0 -0.31,-0.06 -0.43,-0.18c-0.24,-0.24 -0.24,-0.63 0,-0.87c0.68,-0.69 1.71,-1.17 2.74,-1.3c1.17,-0.14 2.19,0.16 2.89,0.86c0.24,0.25 0.24,0.63 0,0.88zm7.36,2.18c-0.68,0.68 -1.71,1.16 -2.74,1.28c-0.19,0.03 -0.38,0.04 -0.56,0.04c-0.94,0 -1.75,-0.31 -2.33,-0.89c-0.24,-0.25 -0.24,-0.64 0,-0.88c0.24,-0.24 0.63,-0.24 0.86,0c0.42,0.42 1.1,0.61 1.88,0.51c0.77,-0.09 1.52,-0.45 2.02,-0.94c0.24,-0.24 0.63,-0.24 0.87,0c0.24,0.24 0.24,0.63 0,0.88zm-6.93,5.21c-0.12,0.13 -0.27,0.18 -0.43,0.18c-0.16,0 -0.32,-0.05 -0.44,-0.18c-1.4,-1.4 -1.89,-4.18 -0.43,-5.65c0.24,-0.24 0.63,-0.24 0.86,0c0.24,0.24 0.24,0.63 0,0.87c-0.93,0.93 -0.54,2.93 0.44,3.91c0.24,0.25 0.24,0.64 0,0.87zm2.16,-7.39c-0.12,0.12 -0.28,0.18 -0.43,0.18c-0.16,0 -0.31,-0.07 -0.44,-0.19c-0.23,-0.24 -0.23,-0.63 0,-0.87c0.93,-0.93 0.54,-2.93 -0.43,-3.91c-0.24,-0.25 -0.24,-0.64 0,-0.88c0.24,-0.24 0.63,-0.24 0.86,0c1.41,1.42 1.91,4.2 0.44,5.67zm0,0" fill="#dc3545" fill-rule="nonzero" id="svg_1"/>
  </g>
 </g>
</svg>