<?xml version="1.0"?>
<svg width="39" height="26" xmlns="http://www.w3.org/2000/svg" xmlns:svg="http://www.w3.org/2000/svg" version="1.1">
 <g class="layer">
  <title>Layer 1</title>
  <g id="surface1">
   <path d="m35.86,1.3l-27.68,0l0,1.95l15.1,0c0.34,0 0.63,0.29 0.63,0.65l0,3.9c0,0.36 -0.28,0.65 -0.63,0.65l-8.18,0l0,2.6l11.95,0c1.04,0 1.89,0.87 1.89,1.95l0,11.05c0,1.08 -0.85,1.95 -1.89,1.95l-25.16,0c-1.04,0 -1.89,-0.87 -1.89,-1.95l0,-11.05c0,-1.08 0.85,-1.95 1.89,-1.95l11.95,0l0,-3.25c0,-0.36 0.28,-0.65 0.63,-0.65l8.18,0l0,-2.6l-15.1,0c-0.35,0 -0.64,-0.3 -0.64,-0.66l0,-3.24c0,-0.36 0.29,-0.65 0.64,-0.65l28.31,0c0.34,0 0.63,0.29 0.63,0.65c0,0.36 -0.29,0.65 -0.63,0.65zm-33.97,11.05c-0.35,0 -0.63,0.29 -0.63,0.66l0,11.05c0,0.36 0.28,0.65 0.63,0.65l25.16,0c0.34,0 0.63,-0.3 0.63,-0.65l0,-11.06c0,-0.36 -0.28,-0.65 -0.63,-0.65l-25.16,0zm16.98,11.7l-8.8,0c-0.35,0 -0.64,-0.29 -0.64,-0.65l0,-1.95c0,-0.36 0.28,-0.65 0.64,-0.65l8.81,0c0.34,0 0.63,0.29 0.63,0.65l0,1.95c-0.01,0.36 -0.3,0.65 -0.64,0.65zm-0.63,-1.95l-7.55,0l0,0.65l7.55,0l0,-0.65zm-4.53,-3.71l-1.25,0c-0.23,0 -0.42,-0.18 -0.42,-0.41l0,-1.21c0,-0.22 0.19,-0.4 0.42,-0.4l1.25,0c0.23,0 0.42,0.18 0.42,0.4l0,1.21c0,0.23 -0.19,0.41 -0.42,0.41zm-0.42,-1.21l-0.42,0l0,0.41l0.42,0l0,-0.41zm3.34,1.21l-1.25,0c-0.23,0 -0.42,-0.18 -0.42,-0.41l0,-1.21c0,-0.22 0.19,-0.4 0.42,-0.4l1.25,0c0.23,0 0.42,0.18 0.42,0.4l0,1.21c0,0.23 -0.18,0.41 -0.42,0.41zm-0.41,-1.21l-0.42,0l0,0.41l0.42,0l0,-0.41zm-8.36,1.21l-1.26,0c-0.23,0 -0.42,-0.18 -0.42,-0.41l0,-1.21c0,-0.22 0.19,-0.4 0.42,-0.4l1.26,0c0.23,0 0.41,0.18 0.41,0.4l0,1.21c0.01,0.23 -0.18,0.41 -0.41,0.41zm-0.42,-1.21l-0.42,0l0,0.41l0.42,0l0,-0.41zm3.35,1.21l-1.26,0c-0.23,0 -0.42,-0.18 -0.42,-0.41l0,-1.21c0,-0.22 0.19,-0.4 0.42,-0.4l1.26,0c0.22,0 0.41,0.18 0.41,0.4l0,1.21c0,0.23 -0.19,0.41 -0.41,0.41zm-0.43,-1.21l-0.41,0l0,0.41l0.41,0l0,-0.41zm9.2,1.21l-1.26,0c-0.22,0 -0.41,-0.18 -0.41,-0.41l0,-1.21c0,-0.22 0.19,-0.4 0.41,-0.4l1.26,0c0.23,0 0.42,0.18 0.42,0.4l0,1.21c0,0.23 -0.19,0.41 -0.42,0.41zm-0.41,-1.21l-0.42,0l0,0.41l0.42,0l0,-0.41zm3.34,1.21l-1.26,0c-0.23,0 -0.41,-0.18 -0.41,-0.41l0,-1.21c0,-0.22 0.18,-0.4 0.41,-0.4l1.26,0c0.23,0 0.42,0.18 0.42,0.4l0,1.21c0,0.23 -0.19,0.41 -0.42,0.41zm-0.42,-1.21l-0.42,0l0,0.41l0.42,0l0,-0.41zm-6.69,-1.21l-1.25,0c-0.23,0 -0.42,-0.18 -0.42,-0.41l0,-1.21c0,-0.22 0.19,-0.4 0.42,-0.4l1.25,0c0.23,0 0.42,0.17 0.42,0.4l0,1.21c0,0.23 -0.19,0.41 -0.42,0.41zm-0.42,-1.21l-0.41,0l0,0.4l0.41,0l0,-0.4zm3.35,1.21l-1.26,0c-0.23,0 -0.42,-0.18 -0.42,-0.41l0,-1.21c0,-0.22 0.19,-0.4 0.42,-0.4l1.26,0c0.23,0 0.42,0.17 0.42,0.4l0,1.21c0,0.23 -0.19,0.41 -0.42,0.41zm-0.42,-1.21l-0.42,0l0,0.4l0.42,0l0,-0.4zm-8.36,1.21l-1.26,0c-0.23,0 -0.41,-0.18 -0.41,-0.41l0,-1.21c0,-0.22 0.18,-0.4 0.41,-0.4l1.26,0c0.23,0 0.42,0.17 0.42,0.4l0,1.21c0,0.23 -0.19,0.41 -0.42,0.41zm-0.42,-1.21l-0.41,0l0,0.4l0.41,0l0,-0.4zm3.35,1.21l-1.26,0c-0.23,0 -0.42,-0.18 -0.42,-0.41l0,-1.21c0,-0.22 0.18,-0.4 0.42,-0.4l1.26,0c0.22,0 0.41,0.17 0.41,0.4l0,1.21c0,0.23 -0.19,0.41 -0.41,0.41zm-0.42,-1.21l-0.42,0l0,0.4l0.42,0l0,-0.4zm9.19,1.21l-1.25,0c-0.23,0 -0.42,-0.18 -0.42,-0.41l0,-1.21c0,-0.22 0.19,-0.4 0.42,-0.4l1.25,0c0.23,0 0.42,0.17 0.42,0.4l0,1.21c0,0.23 -0.18,0.41 -0.42,0.41zm-0.41,-1.21l-0.42,0l0,0.4l0.42,0l0,-0.4zm-13.9,8.64l-4.41,0c-0.34,0 -0.63,-0.29 -0.63,-0.65c0,-0.35 0.28,-0.64 0.63,-0.64l4.4,0c0.35,0 0.64,0.29 0.64,0.64c0,0.36 -0.28,0.65 -0.63,0.65zm19.5,0l-4.4,0c-0.35,0 -0.63,-0.29 -0.63,-0.65c0,-0.35 0.28,-0.64 0.63,-0.64l4.4,0c0.35,0 0.63,0.29 0.63,0.64c0,0.36 -0.28,0.65 -0.63,0.65zm8.18,2.6c-2.44,0 -4.4,-2.04 -4.4,-4.55l0,-5.2c0,-2.51 1.97,-4.54 4.4,-4.54c2.43,0 4.4,2.04 4.4,4.54l0,5.2c0,2.51 -1.97,4.55 -4.4,4.55zm3.14,-9.75c0,-1.79 -1.4,-3.24 -3.14,-3.24c-1.74,0 -3.15,1.45 -3.15,3.24l0,1.3l6.29,0l0,-1.3zm0,2.6l-6.29,0l0,2.6c0,1.8 1.42,3.25 3.15,3.25c1.73,0 3.14,-1.46 3.14,-3.25l0,-2.6zm-3.14,-1.95c-0.35,0 -0.63,-0.29 -0.63,-0.65l0,-1.95c0,-0.36 0.28,-0.65 0.63,-0.65c0.35,0 0.63,0.29 0.63,0.65l0,1.95c-0.01,0.36 -0.28,0.65 -0.63,0.65zm3.77,-15.6l-0.63,0c-0.35,0 -0.63,-0.29 -0.63,-0.65c0,-0.36 0.28,-0.65 0.63,-0.65l0.64,0c0.33,0 0.62,0.29 0.62,0.65c0,0.36 -0.29,0.65 -0.63,0.65zm0,0" fill="#dc3545" fill-rule="nonzero" id="svg_1"/>
  </g>
 </g>
</svg>