<?xml version="1.0"?>
<svg width="40" height="31" xmlns="http://www.w3.org/2000/svg" xmlns:svg="http://www.w3.org/2000/svg" version="1.1">
 <g class="layer">
  <title>Layer 1</title>
  <g id="surface1">
   <path d="m39.34,12.27c0.36,0 0.66,0.31 0.66,0.69l0,4.13c0,0.39 -0.3,0.7 -0.66,0.7l-0.67,0l0,11.01c0,0.38 -0.3,0.7 -0.66,0.7l-16.01,0c0,0.38 -0.3,0.68 -0.66,0.68l-2.67,0c-0.37,0 -0.66,-0.3 -0.66,-0.68l-1.34,0l0,0.68c0,0.38 -0.3,0.69 -0.66,0.69l-4,0c-0.37,0 -0.67,-0.31 -0.67,-0.69l0,-0.68l-9.34,0c-0.37,0 -0.66,-0.32 -0.66,-0.7l0,-9.64l-0.68,0c-0.36,0 -0.66,-0.31 -0.66,-0.69l0,-11.71c0,-0.38 0.3,-0.69 0.66,-0.69l0.67,0l0,-4.82c0,-0.38 0.3,-0.69 0.66,-0.69l36,0c0.37,0 0.67,0.31 0.67,0.69l0,4.13l0.66,0c0.37,0 0.67,0.32 0.67,0.69l0,4.14c0,0.38 -0.3,0.68 -0.67,0.68l-0.66,0l0,1.38l0.68,0zm-7.34,15.85l5.34,0l0,-5.51l-5.34,0l0,5.51zm-12.66,0.69l1.33,0l0,-1.38l-1.33,0l0,1.38zm-6.68,0.69l2.67,0l0,-5.52l-2.67,0l0,5.52zm-11.32,-22.05l0,10.34l2,0l0,-10.34l-2,0zm36,-5.5l-34.68,0l0,4.13l1.34,0c0.37,0 0.66,0.31 0.66,0.69l0,11.71c0,0.38 -0.29,0.69 -0.66,0.69l-1.34,0l0,8.96l8.67,0l0,-4.83c0,-0.38 0.3,-0.69 0.66,-0.69l4,0c0.37,0 0.67,0.31 0.67,0.69l0,4.83l1.33,0l0,-1.38c0,-0.38 0.3,-0.69 0.67,-0.69l2.66,0c0.37,0 0.67,0.31 0.67,0.69l0,1.38l8.66,0l0,-6.2c0,-0.39 0.3,-0.7 0.67,-0.7l6,0l0,-3.44l-4.67,0c-0.36,0 -0.66,-0.31 -0.66,-0.69l0,-4.13c0,-0.39 0.3,-0.69 0.66,-0.69l4.67,0l0,-1.38l-4.67,0c-0.36,0 -0.66,-0.31 -0.66,-0.69l0,-4.13c0,-0.38 0.3,-0.69 0.66,-0.69l4.67,0l0,-3.44c0,0 0.02,0 0.02,0zm1.33,4.82l-5.33,0l0,2.75l5.33,0l0,-2.75zm-5.33,6.88l0,2.76l5.33,0l0,-2.76l-5.33,0zm-25.34,-6.2c-1.11,0 -2,-0.93 -2,-2.07c0,-1.13 0.89,-2.06 2,-2.06c1.11,0 2,0.93 2,2.06c0,1.15 -0.89,2.07 -2,2.07zm0,-2.75c-0.37,0 -0.66,0.3 -0.66,0.68c0,0.38 0.29,0.69 0.66,0.69c0.37,0 0.66,-0.31 0.66,-0.69c0,-0.38 -0.29,-0.68 -0.66,-0.68zm19.34,2.75c-1.11,0 -2,-0.93 -2,-2.07c0,-1.13 0.9,-2.06 2,-2.06c1.1,0 2,0.93 2,2.06c0,1.15 -0.91,2.07 -2,2.07zm0,-2.75c-0.37,0 -0.67,0.3 -0.67,0.68c0,0.38 0.3,0.69 0.67,0.69c0.36,0 0.66,-0.31 0.66,-0.69c0,-0.38 -0.3,-0.68 -0.66,-0.68zm-19.34,21.35c-1.11,0 -2,-0.92 -2,-2.07c0,-1.13 0.89,-2.06 2,-2.06c1.11,0 2,0.92 2,2.06c0,1.15 -0.89,2.07 -2,2.07zm0,-2.76c-0.37,0 -0.66,0.32 -0.66,0.69c0,0.38 0.29,0.69 0.66,0.69c0.37,0 0.66,-0.31 0.66,-0.69c0,-0.37 -0.29,-0.69 -0.66,-0.69zm19.34,2.76c-1.11,0 -2,-0.92 -2,-2.07c0,-1.13 0.9,-2.06 2,-2.06c1.1,0 2,0.92 2,2.06c0,1.15 -0.91,2.07 -2,2.07zm0,-2.76c-0.37,0 -0.67,0.32 -0.67,0.69c0,0.38 0.3,0.69 0.67,0.69c0.36,0 0.66,-0.31 0.66,-0.69c0,-0.37 -0.3,-0.69 -0.66,-0.69zm-4,-15.84l-11.34,0c-0.37,0 -0.66,-0.31 -0.66,-0.69l0,-2.75c0,-0.39 0.29,-0.69 0.66,-0.69l11.34,0c0.36,0 0.66,0.31 0.66,0.69l0,2.75c0,0.39 -0.3,0.69 -0.66,0.69zm-0.68,-2.75l-10,0l0,1.37l10,0l0,-1.37zm-16.66,6.88l0,-1.37l1.34,0l0,1.37l-1.34,0zm0,2.76l0,-1.38l1.34,0l0,1.38l-1.34,0zm0,2.75l0,-1.37l1.34,0l0,1.37l-1.34,0zm0,2.77l0,-1.38l1.34,0l0,1.38l-1.34,0zm2.66,-8.28l0,-1.37l1.34,0l0,1.37l-1.34,0zm0,2.76l0,-1.38l1.34,0l0,1.38l-1.34,0zm0,2.75l0,-1.37l1.34,0l0,1.37l-1.34,0zm0,2.77l0,-1.38l1.34,0l0,1.38l-1.34,0zm2.68,-8.28l0,-1.37l1.33,0l0,1.37l-1.33,0zm0,2.76l0,-1.38l1.33,0l0,1.38l-1.33,0zm0,2.75l0,-1.37l1.33,0l0,1.37l-1.33,0zm0,2.77l0,-1.38l1.33,0l0,1.38l-1.33,0zm11.32,0l-8,0c-0.36,0 -0.66,-0.31 -0.66,-0.69l0,-8.27c0,-0.38 0.3,-0.69 0.66,-0.69l8,0c0.37,0 0.67,0.31 0.67,0.69l0,8.27c0.01,0.38 -0.29,0.69 -0.67,0.69zm-0.66,-8.28l-6.67,0l0,6.89l6.67,0l0,-6.89zm8,7.58l-4.66,0c-0.37,0 -0.67,-0.31 -0.67,-0.69l0,-6.89c0,-0.38 0.3,-0.69 0.67,-0.69l4.66,0c0.37,0 0.66,0.31 0.66,0.69l0,6.89c0,0.39 -0.29,0.69 -0.66,0.69zm-0.66,-6.89l-3.34,0l0,5.52l3.34,0l0,-5.52zm0,0" fill="#dc3545" fill-rule="nonzero" id="svg_1"/>
  </g>
 </g>
</svg>