<?xml version="1.0"?>
<svg width="40" height="31.000000000000004" xmlns="http://www.w3.org/2000/svg" xmlns:svg="http://www.w3.org/2000/svg" version="1.1">
 <g class="layer">
  <title>Layer 1</title>
  <g id="surface1">
   <path d="m34.16,26.07l-28.43,0c-1.3,0 -2.37,-1.07 -2.37,-2.4l0,-17.36l0.95,0l0,17.35c0,0.8 0.64,1.45 1.42,1.45l28.43,0c0.79,0 1.42,-0.65 1.42,-1.45l0,-21.2c0,-0.8 -0.63,-1.45 -1.42,-1.45l-28.43,0c-0.78,0.01 -1.42,0.65 -1.42,1.45l0,1.92l-0.95,0l0,-1.92c0,-1.33 1.07,-2.41 2.37,-2.41l28.43,0c1.31,0 2.37,1.08 2.37,2.41l0,21.2c0,1.34 -1.06,2.41 -2.37,2.41zm-7.11,4.82l-14.21,0c-0.26,0 -0.48,-0.21 -0.48,-0.48c0,-2.4 2.5,-2.4 3.32,-2.4l8.53,0c0.83,0 3.32,0 3.32,2.4c0,0.27 -0.21,0.48 -0.48,0.48zm-2.84,-1.93l-8.53,0c-1.58,0 -2.15,0.37 -2.31,0.97l13.15,0c-0.16,-0.59 -0.73,-0.97 -2.31,-0.97zm-0.48,0l-7.57,0c-0.27,0 -0.47,-0.21 -0.47,-0.48l0,-2.89c0,-0.27 0.21,-0.48 0.47,-0.48l7.58,0c0.26,0 0.47,0.21 0.47,0.48l0,2.89c0,0.27 -0.21,0.48 -0.48,0.48zm-0.46,-2.89l-6.64,0l0,1.93l6.64,0l0,-1.93zm-19.43,-3.85l0,-0.97l32.21,0l0,0.97l-32.21,0zm14.21,1.93l0,-0.97l3.79,0l0,0.97l-3.79,0zm0,0" fill="#dc3545" fill-rule="nonzero" id="svg_1"/>
  </g>
 </g>
</svg>